<?xml version="1.0" encoding="UTF-8" standalone="no"?>
<!-- Created with Inkscape (http://www.inkscape.org/) -->

<svg
   width="260mm"
   height="260mm"
   viewBox="0 0 260 260"
   version="1.1"
   id="svg1"
   inkscape:version="1.3.2 (091e20e, 2023-11-25, custom)"
   sodipodi:docname="counter22.svg"
   xmlns:inkscape="http://www.inkscape.org/namespaces/inkscape"
   xmlns:sodipodi="http://sodipodi.sourceforge.net/DTD/sodipodi-0.dtd"
   xmlns="http://www.w3.org/2000/svg"
   xmlns:svg="http://www.w3.org/2000/svg">
  <sodipodi:namedview
     id="namedview1"
     pagecolor="#ffffff"
     bordercolor="#666666"
     borderopacity="1.0"
     inkscape:showpageshadow="2"
     inkscape:pageopacity="0.0"
     inkscape:pagecheckerboard="0"
     inkscape:deskcolor="#d1d1d1"
     inkscape:document-units="mm"
     inkscape:zoom="0.5186586"
     inkscape:cx="563.95479"
     inkscape:cy="535.03403"
     inkscape:window-width="1366"
     inkscape:window-height="705"
     inkscape:window-x="-8"
     inkscape:window-y="-8"
     inkscape:window-maximized="1"
     inkscape:current-layer="layer1" />
  <defs
     id="defs1">
    <clipPath
       clipPathUnits="userSpaceOnUse"
       id="clipPath5">
      <path
         id="path5"
         style="font-weight:bold;font-size:70.5556px;line-height:1.25;font-family:Verdana;-inkscape-font-specification:'Verdana Bold';fill:#e6e6e6;stroke-width:0.264583"
         inkscape:transform-center-x="-1.7504912"
         inkscape:transform-center-y="-4.0844794"
         d="m 105.08816,64.814132 c -6.040402,0 -10.943579,1.29748 -14.710213,3.892786 -3.766638,2.595303 -5.650302,5.92591 -5.650302,9.991122 0,2.756074 0.700675,5.178782 2.101681,7.268805 1.401006,2.090026 3.594211,3.824229 6.57996,5.202267 v 0.206705 c -3.697735,1.492875 -6.304354,3.23822 -7.820195,5.236374 -1.492874,1.975186 -2.239139,4.248949 -2.239139,6.821289 0,2.09002 0.413411,4.04259 1.240234,5.85701 0.849789,1.81441 2.147271,3.39916 3.892786,4.75423 1.76848,1.37804 4.007794,2.45716 6.717935,3.23804 2.71014,0.7809 5.960193,1.17151 9.749793,1.17151 6.75239,0 12.05783,-1.44694 15.91634,-4.34082 3.88147,-2.89388 5.82187,-6.61459 5.82187,-11.16211 0,-3.123556 -0.86128,-5.833525 -2.58382,-8.130253 -1.72255,-2.296732 -4.37527,-4.122632 -7.95817,-5.477704 v -0.206705 c 3.12355,-1.332103 5.44342,-2.951298 6.95926,-4.857586 1.51584,-1.906283 2.27376,-4.076695 2.27376,-6.511229 0,-3.927407 -1.80311,-7.062447 -5.40897,-9.40511 -3.58289,-2.365631 -8.54384,-3.548621 -14.88281,-3.548621 z m 0,8.716264 c 2.22782,0 4.00814,0.516763 5.34024,1.550292 1.35507,1.033529 2.03244,2.422708 2.03244,4.168222 0,1.44694 -0.2295,2.664378 -0.68885,3.651972 -0.45935,0.987595 -1.21727,2.101681 -2.27376,3.341916 -1.58474,-0.505281 -2.93999,-0.953143 -4.06539,-1.343586 -1.10243,-0.413412 -1.97536,-0.757923 -2.61844,-1.033529 -1.74552,-0.757923 -3.008548,-1.515843 -3.789436,-2.273763 -0.75792,-0.757923 -1.136883,-1.814764 -1.136883,-3.169833 0,-0.803857 0.218363,-1.515671 0.654741,-2.135788 0.436377,-0.643083 0.987594,-1.159849 1.653648,-1.550292 0.71198,-0.390445 1.4927,-0.688848 2.34249,-0.895553 0.87275,-0.206706 1.72237,-0.310058 2.5492,-0.310058 z m -4.85759,20.739302 c 0.9876,0.367477 2.20504,0.803685 3.65198,1.308965 1.44694,0.50528 2.54937,0.930349 3.30729,1.274858 2.57234,1.102428 4.27209,2.078712 5.09891,2.928503 0.82683,0.849786 1.24024,2.101166 1.24024,3.754806 0,1.21727 -0.25282,2.18189 -0.7581,2.89388 -0.50528,0.71199 -1.1715,1.33211 -1.99832,1.86035 -0.71199,0.45935 -1.56161,0.80386 -2.5492,1.03353 -0.98759,0.20671 -1.84886,0.31006 -2.58382,0.31006 -2.75607,0 -4.99539,-0.70016 -6.71794,-2.10116 -1.699578,-1.42397 -2.549197,-3.33043 -2.549197,-5.71903 0,-1.58474 0.390099,-3.008891 1.170987,-4.272094 0.803855,-1.286169 1.699583,-2.376943 2.68717,-3.272668 z m 5.81567,32.532902 c -6.201171,0 -11.219356,1.73421 -15.054894,5.20226 -3.812572,3.4451 -5.719032,7.91207 -5.719032,13.40125 0,3.3762 0.562872,6.17838 1.688269,8.40621 1.148366,2.20486 2.675864,3.98466 4.582149,5.33972 1.446941,0.9876 3.042825,1.72272 4.78834,2.20504 1.76848,0.45934 3.617693,0.68884 5.546948,0.68884 2.54937,0 4.67368,-0.2984 6.37325,-0.89555 1.72255,-0.62012 3.5829,-1.5047 5.58106,-2.65307 -0.29858,2.1819 -0.88425,4.05391 -1.757,5.61568 -0.87276,1.53881 -1.98684,2.82515 -3.34192,3.85868 -1.24023,0.96463 -2.72162,1.67644 -4.44417,2.13579 -1.72255,0.43638 -3.47955,0.65474 -5.270994,0.65474 -2.20486,0 -3.950205,-0.18392 -5.236374,-0.55139 -1.2632,-0.36748 -2.239484,-0.71199 -2.928504,-1.03353 h -1.377693 v 10.09396 c 0.620117,0.16077 1.9176,0.34468 3.892786,0.55139 1.975188,0.2067 3.812746,0.31005 5.512326,0.31005 4.800163,0 9.003183,-0.67736 12.609053,-2.03243 3.60586,-1.37804 6.62589,-3.43396 9.06042,-6.16707 2.2508,-2.5264 3.92724,-5.63812 5.02967,-9.33586 1.10243,-3.69774 1.65365,-7.69405 1.65365,-11.98893 0,-4.38676 -0.5279,-8.10746 -1.5844,-11.16211 -1.05649,-3.05465 -2.6301,-5.56958 -4.72013,-7.54476 -1.79145,-1.72255 -3.92741,-2.99723 -6.40787,-3.82406 -2.45751,-0.84978 -5.28249,-1.27485 -8.47494,-1.27485 z m -0.10335,8.71626 c 0.96462,0 1.88366,0.16059 2.75642,0.48214 0.87276,0.32154 1.64182,0.84996 2.30787,1.58492 0.94166,0.98759 1.67678,2.38842 2.20503,4.20284 0.55121,1.79145 0.82682,4.08801 0.82682,6.89002 0,0.94166 -0.0228,1.65399 -0.0687,2.1363 -0.023,0.45935 -0.0346,0.815 -0.0346,1.06764 -0.66605,0.27561 -1.60788,0.55122 -2.82515,0.82682 -1.21726,0.25264 -2.34249,0.37931 -3.37602,0.37931 -1.28617,0 -2.4803,-0.12667 -3.58273,-0.37931 -1.07946,-0.25264 -2.02129,-0.68884 -2.82515,-1.30896 -0.84978,-0.64308 -1.51601,-1.50436 -1.998327,-2.58382 -0.482311,-1.10244 -0.723468,-2.45768 -0.723468,-4.06539 0,-1.65364 0.21836,-3.07727 0.65474,-4.27157 0.459346,-1.1943 1.045015,-2.15893 1.756995,-2.89388 0.75793,-0.75792 1.53864,-1.28635 2.3425,-1.58492 0.82682,-0.32155 1.6881,-0.48214 2.58382,-0.48214 z" />
    </clipPath>
    <clipPath
       clipPathUnits="userSpaceOnUse"
       id="clipPath6">
      <path
         id="path6"
         style="font-weight:bold;font-size:176.389px;line-height:1.25;font-family:verdana;-inkscape-font-specification:'verdana Bold';fill:#e6e6e6;stroke-width:0.264583"
         d="m 131.14238,-10.387996 c -15.101,0 -27.35998,3.243961 -36.776565,9.73222208 C 84.949226,5.8324872 80.241098,14.157968 80.241098,24.320996 c 0,6.890188 1.750914,12.947993 5.253426,18.173051 3.502512,5.22506 8.986303,9.560313 16.450676,13.005408 v 0.516763 c -9.244339,3.732186 -15.761659,8.095806 -19.551262,13.091192 -3.732186,4.937969 -5.59811,10.622378 -5.59811,17.053221 0,5.225061 1.033532,10.105446 3.100586,14.641489 2.124475,4.53604 5.368436,8.4979 9.732225,11.88558 4.421203,3.44509 10.019485,6.14392 16.794841,8.09614 6.77534,1.95222 14.90021,2.92851 24.37422,2.92851 16.88096,0 30.14459,-3.61736 39.79085,-10.85206 9.70369,-7.23469 14.5557,-16.536455 14.5557,-27.90527 0,-7.808881 -2.15318,-14.584582 -6.45955,-20.326408 -4.30637,-5.741824 -10.93818,-10.306577 -19.89543,-13.694254 v -0.516763 c 7.80888,-3.33026 13.60778,-7.378248 17.39739,-12.143962 3.7896,-4.765715 5.68441,-10.191742 5.68441,-16.278076 0,-9.818519 -4.50699,-17.6561165 -13.52166,-23.5127771 -8.95724,-5.9140785 -21.35959,-8.8707759 -37.20703,-8.8707759 z m 0,21.789884 c 5.56957,0 10.01931,1.291911 13.34958,3.875732 3.38767,2.583821 5.08134,6.057801 5.08134,10.421587 0,3.617349 -0.57401,6.660689 -1.72238,9.129675 -1.14836,2.468983 -3.04317,5.253427 -5.6844,8.354013 -3.96187,-1.263203 -7.34972,-2.382859 -10.16321,-3.358968 -2.75608,-1.033531 -4.93762,-1.894803 -6.54533,-2.583823 -4.36379,-1.894803 -7.52214,-3.789606 -9.47436,-5.684406 -1.8948,-1.894803 -2.84221,-4.535874 -2.84221,-7.923549 0,-2.009638 0.54565,-3.789433 1.6366,-5.339725 1.09094,-1.607711 2.46898,-2.899623 4.13411,-3.875733 1.77997,-0.97611 3.73202,-1.722892 5.85649,-2.239656 2.18189,-0.516765 4.30671,-0.775147 6.37377,-0.775147 z m -12.14396,51.849033 c 2.46899,0.918692 5.51181,2.009466 9.12916,3.272666 3.61735,1.263203 6.37342,2.325613 8.26823,3.186888 6.43084,2.756074 10.67997,5.196006 12.74702,7.320481 2.06706,2.124477 3.10059,5.253945 3.10059,9.388059 0,3.043166 -0.63177,5.454735 -1.89497,7.234701 -1.2632,1.779963 -2.92799,3.330257 -4.99505,4.650877 -1.77996,1.148369 -3.90479,2.009647 -6.37377,2.583827 -2.46898,0.51676 -4.62217,0.77514 -6.45955,0.77514 -6.89019,0 -12.48847,-1.751427 -16.79484,-5.253942 -4.24895,-3.559931 -6.37326,-8.325305 -6.37326,-14.296802 0,-3.961858 0.97629,-7.521964 2.92851,-10.679967 2.00963,-3.215421 4.24895,-5.942619 6.71793,-8.181928 z m 12.49691,80.165129 c -15.50292,0 -28.04916,4.33525 -37.638009,13.00541 -9.53143,8.61273 -14.296803,19.78042 -14.296803,33.50338 0,8.44049 1.406403,15.44569 4.219898,21.01526 2.870911,5.51214 6.689402,9.96189 11.455114,13.34957 3.617349,2.46898 7.60809,4.30654 11.97188,5.51232 4.4212,1.14837 9.04321,1.72238 13.86634,1.72238 6.37342,0 11.68496,-0.74627 15.93391,-2.23914 4.30637,-1.5503 8.95725,-3.76124 13.95263,-6.63215 -0.74643,5.45473 -2.2106,10.13449 -4.39249,14.03893 -2.18189,3.84702 -4.96685,7.06262 -8.35453,9.64644 -3.10059,2.41157 -6.80407,4.19136 -11.11043,5.33973 -4.30637,1.09094 -8.69887,1.63659 -13.17749,1.63659 -5.51216,0 -9.87629,-0.45952 -13.09171,-1.37821 -3.158009,-0.91869 -5.597938,-1.77997 -7.320484,-2.58382 h -3.445269 v 25.23515 c 1.550294,0.40193 4.794255,0.86143 9.732224,1.37822 4.937969,0.51675 9.531599,0.77514 13.780549,0.77514 12.00041,0 22.50796,-1.69367 31.52263,-5.08134 9.01466,-3.44509 16.56551,-8.58439 22.65185,-15.41715 5.62698,-6.31601 9.81834,-14.09584 12.57442,-23.34018 2.75607,-9.24434 4.13412,-19.23512 4.13412,-29.97233 0,-10.96688 -1.3208,-20.26865 -3.96204,-27.90527 -2.64123,-7.63664 -6.57421,-13.92393 -11.79928,-18.8619 -4.47862,-4.30636 -9.81852,-7.49308 -16.01969,-9.56014 -6.14375,-2.12448 -13.20621,-3.18689 -21.18734,-3.18689 z m -0.25838,21.7904 c 2.41157,0 4.70813,0.40176 6.89002,1.20561 2.18189,0.80386 4.10557,2.12465 5.77071,3.96204 2.35414,2.46898 4.1917,5.97132 5.51232,10.50737 1.37804,4.47862 2.06706,10.22027 2.06706,17.2253 h -5.3e-4 c 0,2.35415 -0.0573,4.13446 -0.17208,5.34024 -0.0574,1.14837 -0.0858,2.03801 -0.0858,2.66961 -1.66513,0.68902 -4.01946,1.37804 -7.06262,2.06706 -3.04316,0.63159 -5.85649,0.94774 -8.44031,0.94774 -3.21543,0 -6.20153,-0.31615 -8.9576,-0.94774 -2.69865,-0.6316 -5.05298,-1.72238 -7.06261,-3.27267 -2.12448,-1.60772 -3.78926,-3.7609 -4.99505,-6.45956 -1.20578,-2.75607 -1.80867,-6.14393 -1.80867,-10.1632 0,-4.13411 0.54513,-7.6937 1.63607,-10.67945 1.14837,-2.98575 2.61253,-5.39732 4.3925,-7.2347 1.8948,-1.8948 3.84737,-3.2156 5.85701,-3.96204 2.06705,-0.80385 4.22024,-1.20561 6.45955,-1.20561 z" />
    </clipPath>
  </defs>
  <g
     inkscape:label="Layer 1"
     inkscape:groupmode="layer"
     id="layer1">
    <text
       xml:space="preserve"
       style="font-size:50.8px;line-height:1.25;font-family:sans-serif;stroke-width:0.264583"
       x="98.027504"
       y="84.023575"
       id="text1"><tspan
         sodipodi:role="line"
         id="tspan1"
         style="stroke-width:0.264583"
         x="98.027504"
         y="84.023575" /></text>
    <rect
       style="fill:#ff2a2a;fill-rule:evenodd;stroke-width:0.264583"
       id="rect1"
       width="260.23969"
       height="259.65619"
       x="0"
       y="0"
       ry="27.424362" />
    <text
       xml:space="preserve"
       style="font-weight:bold;font-size:141.111px;line-height:1.25;font-family:Verdana;-inkscape-font-specification:'Verdana Bold';stroke-width:0.264583"
       x="126.03536"
       y="99.194504"
       id="text3"><tspan
         sodipodi:role="line"
         id="tspan3"
         style="stroke-width:0.264583" /></text>
    <path
       d="M 159.94943,171.86496 H 100.0221 V 156.1898 h 18.93076 V 108.74231 H 100.0221 V 94.092069 q 4.34081,0 8.31989,-0.482312 3.97908,-0.542602 6.63179,-1.808672 3.13504,-1.507227 4.70255,-3.918789 1.56752,-2.411563 1.80867,-6.028907 h 19.95568 V 156.1898 h 18.50875 z"
       id="text4"
       style="font-weight:bold;font-size:123.472px;line-height:1.25;font-family:Verdana;-inkscape-font-specification:'Verdana Bold';fill:#ececec;stroke-width:0.264583"
       inkscape:transform-center-y="-8.1620807"
       aria-label="1" />
    <path
       d="M 167.10893,287.07877 H 96.631016 v -14.83111 q 8.078734,-5.84804 16.157464,-12.41955 8.13903,-6.57151 13.02244,-11.33434 7.29498,-7.05382 10.36972,-12.29897 3.07474,-5.24515 3.07474,-10.36972 0,-6.14949 -3.97908,-9.46538 -3.91878,-3.37619 -11.33434,-3.37619 -5.54659,0 -11.69608,2.29098 -6.08919,2.29099 -11.33434,5.84804 h -1.929251 v -19.95568 q 4.280521,-1.86896 12.600411,-3.73792 8.38018,-1.86896 16.76036,-1.86896 16.88094,0 25.74343,7.11411 8.86249,7.05382 8.86249,20.01597 0,8.50075 -4.28052,16.15747 -4.22023,7.65671 -12.96215,15.79573 -5.4863,5.06428 -11.0329,9.3448 -5.54659,4.22024 -7.89786,5.90833 h 40.33338 z"
       id="text5"
       style="font-weight:bold;font-size:123.472px;line-height:1.25;font-family:Verdana;-inkscape-font-specification:'Verdana Bold';fill:#ffaaaa;stroke-width:0.264583"
       aria-label="2" />
    <path
       d="m 165.56191,13.041641 q 0,11.334344 -2.04983,20.317415 -2.04983,8.922781 -6.39064,14.650242 -4.46139,5.848039 -11.45492,8.862492 -6.99353,2.954164 -17.24267,2.954164 -10.06828,0 -17.18239,-3.014453 -7.11411,-3.014453 -11.515207,-8.922781 -4.461391,-5.908328 -6.45093,-14.650243 -1.989539,-8.802203 -1.989539,-20.136546 0,-11.6960786 2.049828,-20.3174145 2.049828,-8.6213355 6.511219,-14.5899535 4.461389,-5.908328 11.575499,-8.862492 7.11411,-2.954164 17.00152,-2.954164 10.30943,0 17.30296,3.074742 6.99353,3.014453 11.45492,9.04336 4.4011,5.908328 6.39064,14.5899528 1.98954,8.6213359 1.98954,19.9556792 z m -23.33187,0 q 0,-16.2780464 -3.19532,-23.151 -3.19532,-6.933242 -10.61087,-6.933242 -7.41556,0 -10.61088,6.933242 -3.19532,6.8729536 -3.19532,23.271579 0,15.976601 3.25561,23.030422 3.25561,7.05382 10.55059,7.05382 7.29497,0 10.55058,-7.05382 3.25561,-7.053821 3.25561,-23.151001 z"
       id="text7"
       style="font-weight:bold;font-size:123.472px;line-height:1.25;font-family:Verdana;-inkscape-font-specification:'Verdana Bold';fill:#ff5555;stroke-width:0.264583"
       aria-label="0" />
    <path
       d="m 165.56191,13.041641 q 0,11.334344 -2.04983,20.317415 -2.04983,8.922781 -6.39064,14.650242 -4.46139,5.848039 -11.45492,8.862492 -6.99353,2.954164 -17.24267,2.954164 -10.06828,0 -17.18239,-3.014453 -7.11411,-3.014453 -11.515207,-8.922781 -4.461391,-5.908328 -6.45093,-14.650243 -1.989539,-8.802203 -1.989539,-20.136546 0,-11.6960786 2.049828,-20.3174145 2.049828,-8.6213355 6.511219,-14.5899535 4.461389,-5.908328 11.575499,-8.862492 7.11411,-2.954164 17.00152,-2.954164 10.30943,0 17.30296,3.074742 6.99353,3.014453 11.45492,9.04336 4.4011,5.908328 6.39064,14.5899528 1.98954,8.6213359 1.98954,19.9556792 z m -23.33187,0 q 0,-16.2780464 -3.19532,-23.151 -3.19532,-6.933242 -10.61087,-6.933242 -7.41556,0 -10.61088,6.933242 -3.19532,6.8729536 -3.19532,23.271579 0,15.976601 3.25561,23.030422 3.25561,7.05382 10.55059,7.05382 7.29497,0 10.55058,-7.05382 3.25561,-7.053821 3.25561,-23.151001 z"
       id="path1"
       style="font-weight:bold;font-size:123.472px;line-height:1.25;font-family:Verdana;-inkscape-font-specification:'Verdana Bold';fill:#ffaaaa;stroke-width:0.264583"
       aria-label="0" />
  </g>
</svg>
